<?xml version="1.0" standalone="no"?>
<!DOCTYPE svg PUBLIC "-//W3C//DTD SVG 20010904//EN"
 "http://www.w3.org/TR/2001/REC-SVG-20010904/DTD/svg10.dtd">
<svg version="1.0" xmlns="http://www.w3.org/2000/svg"
 width="1478.000000pt" height="1478.000000pt" viewBox="0 0 1478.000000 1478.000000"
 preserveAspectRatio="xMidYMid meet">
<metadata>
Created by potrace 1.14, written by Peter Selinger 2001-2017
</metadata>
<g transform="translate(0.000000,1478.000000) scale(0.100000,-0.100000)"
fill="#000000" stroke="none">
<path d="M1824 12993 c3 -105 8 -197 11 -205 2 -7 7 -38 9 -68 5 -60 11 -105
27 -190 17 -90 19 -103 31 -145 5 -22 12 -50 14 -61 6 -35 73 -244 95 -299 12
-27 28 -68 37 -90 84 -207 301 -565 447 -740 280 -337 534 -566 910 -820 200
-135 461 -322 540 -386 11 -10 76 -62 145 -116 135 -107 346 -284 370 -311 8
-10 44 -42 80 -72 108 -92 352 -330 565 -552 134 -140 158 -167 325 -362 14
-16 30 -34 35 -40 155 -172 491 -626 671 -906 270 -419 533 -912 681 -1275
144 -351 265 -698 328 -940 49 -186 104 -414 120 -500 3 -16 8 -41 10 -55 3
-14 8 -38 10 -55 3 -16 14 -79 25 -140 18 -103 22 -130 36 -245 3 -25 7 -56 9
-70 2 -14 7 -52 10 -85 3 -33 8 -72 11 -87 7 -43 -3 -33 -25 26 -89 239 -298
655 -479 956 -71 119 -297 459 -312 470 -3 3 -18 22 -33 44 l-26 39 -15 -59
c-18 -69 -107 -342 -118 -364 -4 -8 -22 -46 -39 -85 -84 -190 -162 -326 -287
-500 -372 -518 -934 -902 -1547 -1058 -77 -20 -156 -38 -175 -41 -19 -3 -46
-8 -60 -10 -35 -7 -172 -24 -250 -32 -106 -11 -376 -5 -495 11 -16 2 -70 7
-120 10 -49 3 -101 8 -115 10 -14 2 -52 7 -85 10 -57 6 -77 9 -135 20 -14 3
-43 8 -64 10 -21 3 -42 7 -45 9 -4 3 -25 7 -48 11 -71 10 -276 65 -408 110
-161 53 -279 102 -452 185 -736 355 -1334 940 -1703 1665 -42 83 -83 168 -92
190 -10 22 -31 73 -48 113 -47 111 -135 384 -161 499 -13 57 -26 97 -30 91 -8
-13 -4 -451 5 -505 3 -17 8 -62 11 -100 6 -65 12 -110 21 -156 2 -12 6 -39 9
-62 12 -77 36 -191 70 -320 194 -741 601 -1398 1186 -1911 63 -55 62 -54 179
-145 224 -175 574 -379 820 -479 30 -12 64 -26 75 -31 149 -66 517 -174 690
-202 17 -3 53 -10 80 -15 28 -6 75 -13 105 -17 30 -3 62 -8 70 -10 8 -2 47 -7
87 -10 40 -4 85 -8 100 -11 37 -5 517 -5 568 1 22 2 69 7 105 10 36 4 72 9 81
10 14 3 89 13 139 20 41 5 113 19 185 35 45 11 92 21 105 23 96 18 382 112
548 181 106 43 348 160 419 202 98 59 138 84 238 150 128 85 224 155 324 238
40 32 73 57 75 55 11 -11 106 -182 106 -190 0 -5 5 -9 10 -9 6 0 10 -4 10 -9
0 -9 49 -95 210 -371 37 -63 78 -135 92 -160 37 -66 500 -868 572 -990 34 -58
66 -114 70 -125 8 -19 8 -19 24 4 22 31 202 342 202 348 0 3 8 17 19 31 10 15
30 47 44 72 14 25 132 230 262 455 131 226 249 430 263 455 14 25 55 97 92
160 37 63 78 133 90 155 76 136 102 175 113 168 7 -4 44 -32 82 -63 108 -86
211 -160 224 -160 6 0 11 -3 11 -7 0 -5 10 -13 23 -19 12 -6 67 -36 123 -67
224 -123 530 -227 744 -252 25 -3 63 -8 85 -11 22 -3 126 -7 230 -8 216 -4
325 7 560 55 459 93 983 344 1458 696 99 74 317 251 347 282 8 9 34 33 58 53
23 21 40 38 37 38 -3 0 -43 -22 -89 -50 -105 -63 -302 -157 -427 -204 -179
-66 -444 -133 -594 -150 -27 -3 -70 -8 -95 -11 -25 -3 -67 -8 -95 -10 -74 -7
-352 -7 -410 0 -27 3 -69 8 -92 10 -24 3 -73 9 -110 15 -62 9 -96 15 -218 40
-66 14 -273 79 -368 116 -113 43 -350 162 -439 220 -38 24 -71 44 -74 44 -3 0
-10 5 -17 10 -7 6 -69 53 -140 105 -114 86 -334 291 -427 399 -90 106 -228
300 -290 411 -127 225 -239 501 -290 715 -6 25 -13 54 -15 65 -56 227 -82 588
-61 830 8 90 35 280 46 325 5 19 11 51 14 70 8 54 63 233 103 334 230 591 661
1174 1339 1816 114 108 125 117 289 259 66 57 133 114 148 128 158 137 563
447 881 671 69 49 308 212 334 227 53 31 149 99 232 164 385 300 683 622 913
985 47 74 175 320 209 401 78 186 136 374 173 560 34 174 36 188 51 375 7 90
11 310 6 315 -2 2 -63 -42 -135 -99 -158 -122 -350 -265 -392 -291 -16 -11
-32 -22 -35 -25 -3 -3 -97 -67 -210 -141 -207 -137 -452 -286 -614 -374 -49
-26 -107 -59 -130 -71 -179 -101 -695 -343 -906 -425 -41 -16 -84 -34 -95 -38
-19 -9 -52 -21 -200 -75 -101 -36 -323 -109 -445 -146 -58 -17 -116 -35 -130
-40 -80 -30 -739 -179 -855 -195 -17 -2 -42 -6 -55 -9 -14 -3 -43 -8 -65 -11
-22 -3 -67 -10 -100 -15 -33 -5 -85 -11 -116 -15 -31 -3 -65 -7 -75 -9 -11 -2
-55 -7 -99 -12 -44 -4 -82 -8 -85 -9 -3 -1 -50 -5 -105 -9 -55 -4 -110 -9
-123 -11 -154 -24 -1027 -24 -1212 0 -19 2 -69 7 -110 11 -41 3 -86 7 -100 9
-14 1 -54 5 -90 9 -36 3 -75 8 -87 10 -12 3 -50 7 -85 11 -35 3 -70 8 -78 10
-8 3 -35 7 -60 10 -103 12 -370 61 -490 90 -3 1 -25 5 -50 9 -80 14 -501 123
-640 166 -512 157 -925 322 -1415 567 -115 57 -214 108 -220 112 -5 5 -50 30
-100 56 -119 64 -376 214 -396 231 -8 8 -19 14 -23 14 -11 0 -401 261 -545
364 -102 73 -234 173 -450 340 -12 9 -13 -18 -7 -181z"/>
<path d="M13440 11863 c0 -26 -48 -177 -92 -292 -209 -538 -622 -1059 -1178
-1488 -58 -44 -116 -92 -130 -105 -14 -14 -63 -51 -110 -83 -134 -92 -118 -80
-325 -236 -466 -350 -1075 -909 -1429 -1314 -44 -49 -92 -105 -108 -123 -63
-71 -276 -343 -323 -413 -110 -163 -233 -374 -223 -384 4 -4 47 33 123 104 49
46 210 185 309 266 27 22 54 45 60 50 6 6 79 62 161 126 472 363 977 681 1488
936 l127 64 88 -31 c48 -17 96 -35 107 -40 218 -94 305 -137 440 -218 181
-109 334 -231 506 -401 414 -412 686 -947 775 -1526 8 -55 17 -120 19 -145 3
-25 7 -72 10 -105 13 -136 3 -455 -19 -571 -2 -11 -7 -48 -11 -84 -7 -70 -10
-94 -20 -155 -3 -22 -8 -55 -10 -73 -36 -251 -128 -575 -242 -846 -54 -130
-178 -376 -214 -428 -11 -14 -19 -29 -19 -33 0 -3 -38 -64 -85 -134 -304 -459
-664 -811 -1137 -1113 -126 -80 -415 -229 -538 -277 -47 -18 -99 -39 -115 -46
-125 -56 -664 -198 -707 -187 -5 1 -8 -2 -8 -8 0 -5 12 -10 28 -11 15 0 52 -2
82 -4 71 -5 497 -5 530 -1 14 2 57 7 95 10 39 3 81 8 95 10 14 3 57 9 95 15
91 14 124 20 155 27 14 3 35 8 48 10 51 9 70 13 137 29 39 8 81 20 95 25 14 4
52 16 85 26 587 167 1153 503 1595 944 363 362 626 754 833 1241 38 90 131
350 142 399 2 8 15 58 29 110 27 101 70 313 80 393 3 26 9 68 12 95 3 26 7 58
10 72 5 34 17 280 17 360 0 69 -11 315 -17 365 -2 17 -7 62 -10 100 -9 85 -41
277 -62 365 -9 36 -17 73 -19 84 -23 107 -114 405 -145 471 -5 11 -21 49 -36
85 -65 159 -166 365 -242 490 -189 311 -335 497 -597 764 -34 33 -97 93 -140
131 -44 39 -82 72 -85 75 -11 12 -189 149 -240 185 -30 22 -57 42 -60 45 -3 3
-14 10 -25 16 -11 7 -63 39 -116 72 -107 68 -175 107 -262 152 l-57 30 88 118
c202 268 353 541 465 837 39 104 101 294 112 344 2 9 16 67 30 130 15 63 28
126 30 140 2 14 8 49 14 76 5 28 12 75 15 105 4 30 8 66 11 80 12 69 29 320
21 320 -3 0 -6 -8 -6 -17z"/>
<path d="M1305 11823 c2 -16 6 -64 10 -108 3 -44 8 -96 10 -115 3 -19 7 -53 9
-75 7 -53 24 -174 31 -205 2 -14 10 -50 16 -80 56 -283 190 -670 307 -890 20
-36 42 -78 50 -95 49 -96 204 -329 296 -445 29 -36 55 -70 59 -77 5 -7 -33
-33 -105 -72 -157 -85 -156 -85 -318 -193 -205 -136 -341 -248 -525 -433 -258
-257 -408 -463 -561 -765 -103 -205 -206 -508 -228 -668 -3 -24 -7 -46 -10
-50 -4 -7 -8 -37 -23 -162 -4 -36 -8 -148 -8 -250 0 -228 9 -318 51 -545 19
-103 86 -327 136 -450 157 -392 396 -754 712 -1079 37 -39 65 -62 61 -51 -4
11 -22 62 -41 114 -32 86 -86 270 -98 331 -3 14 -12 61 -21 105 -36 184 -49
333 -49 580 0 223 10 338 49 565 46 265 153 582 291 857 336 673 892 1177
1528 1384 l58 19 182 -94 c185 -96 241 -126 311 -166 22 -13 67 -38 100 -57
330 -186 794 -505 1137 -779 128 -103 391 -326 434 -369 113 -111 117 -111 61
-5 -236 449 -784 1076 -1472 1685 -49 44 -92 82 -95 85 -10 11 -247 207 -345
286 -187 149 -311 240 -480 352 -410 269 -852 698 -1103 1068 -92 137 -141
222 -220 379 -72 144 -154 360 -177 465 -8 38 -25 40 -20 3z"/>
<path d="M3657 7535 c-1 -2 -35 -5 -74 -9 -154 -13 -311 -56 -449 -123 -51
-25 -71 -39 -58 -41 329 -54 532 -301 464 -565 -59 -226 -291 -382 -582 -392
-94 -3 -123 1 -233 30 -64 16 -169 81 -232 142 -36 34 -67 63 -68 63 -7 0 -65
-234 -74 -295 -14 -101 -7 -355 13 -450 69 -330 243 -617 495 -815 67 -53 233
-160 247 -160 3 0 24 -9 47 -19 82 -37 117 -50 189 -69 218 -58 422 -69 614
-31 28 5 64 12 80 15 60 11 209 66 295 109 328 165 582 454 693 791 26 79 29
90 47 169 22 102 29 265 17 406 -39 439 -306 848 -699 1069 -49 27 -91 50 -94
50 -3 0 -24 9 -48 19 -95 44 -256 85 -377 97 -59 6 -209 12 -213 9z"/>
<path d="M10977 7534 c-1 -1 -31 -5 -67 -8 -36 -4 -74 -9 -85 -11 -11 -3 -31
-7 -45 -9 -81 -13 -218 -59 -313 -106 -155 -75 -165 -83 -127 -95 22 -7 107
-64 147 -98 38 -33 99 -126 118 -182 35 -103 23 -222 -33 -332 -28 -55 -125
-150 -194 -191 -55 -33 -169 -76 -232 -88 -103 -20 -264 -7 -367 30 l-67 24
-11 -61 c-21 -119 -29 -291 -16 -387 8 -65 16 -122 21 -143 3 -12 7 -33 10
-47 13 -62 69 -213 110 -294 67 -134 138 -230 254 -347 88 -88 251 -219 274
-219 4 0 23 -10 44 -23 155 -96 434 -168 649 -167 535 2 998 286 1246 766 128
248 175 596 116 869 -6 28 -13 61 -15 75 -13 63 -70 213 -114 298 -201 384
-545 638 -985 727 -55 11 -309 27 -318 19z"/>
</g>
</svg>
